<svg xmlns="http://www.w3.org/2000/svg" viewBox="0 0 1600 900" role="img" aria-labelledby="t d"><title id="t">Página de vendas ou site institucional</title><desc id="d">Ilustração editorial mostrando dois caminhos digitais: uma página focada em conversão e uma arquitetura institucional com várias páginas.</desc><rect width="1600" height="900" fill="#e7e2da"/><rect x="70" y="70" width="1460" height="760" rx="36" fill="#17191b"/><path d="M800 200v500" stroke="#596166" stroke-width="3" stroke-dasharray="12 14"/><g transform="translate(175 205)"><rect width="500" height="480" rx="28" fill="#f1ede6"/><rect width="500" height="66" rx="28" fill="#d8d2c9"/><circle cx="45" cy="33" r="9" fill="#b86e4a"/><rect x="60" y="120" width="380" height="38" rx="19" fill="#0f3d4a"/><rect x="85" y="200" width="330" height="16" rx="8" fill="#a59e95"/><rect x="105" y="235" width="290" height="16" rx="8" fill="#c3bcb3"/><rect x="140" y="305" width="220" height="72" rx="36" fill="#b86e4a"/><path d="M250 395v45" stroke="#0f3d4a" stroke-width="8" stroke-linecap="round"/><path d="M228 425l22 22 22-22" fill="none" stroke="#0f3d4a" stroke-width="8" stroke-linecap="round"/></g><g transform="translate(925 205)"><rect x="115" y="0" width="320" height="190" rx="24" fill="#0f3d4a"/><rect x="0" y="290" width="200" height="150" rx="22" fill="#2a3033"/><rect x="250" y="290" width="200" height="150" rx="22" fill="#b86e4a"/><rect x="500" y="290" width="200" height="150" rx="22" fill="#2a3033"/><path d="M275 190v65M275 255H100v35M275 255h75v35M275 255h325v35" fill="none" stroke="#d8d2c9" stroke-width="7" stroke-linecap="round"/><rect x="165" y="55" width="220" height="24" rx="12" fill="#e7e2da"/><rect x="195" y="100" width="160" height="14" rx="7" fill="#a9c0c6"/><g fill="#d8d2c9"><rect x="45" y="335" width="110" height="16" rx="8"/><rect x="295" y="335" width="110" height="16" rx="8"/><rect x="545" y="335" width="110" height="16" rx="8"/></g></g><circle cx="800" cy="450" r="54" fill="#b86e4a"/><path d="M775 450h50M800 425v50" stroke="#fff" stroke-width="8" stroke-linecap="round"/><text x="165" y="145" fill="#d28b68" font-family="Arial,sans-serif" font-size="22" font-weight="700" letter-spacing="4">RAVYT DIGITAL · SITES</text></svg>