<svg xmlns="http://www.w3.org/2000/svg" viewBox="0 0 1600 900" role="img" aria-labelledby="t d"><title id="t">Site bonito e confiança</title><desc id="d">Ilustração editorial de uma interface elegante acompanhada por sinais de confiança, clareza e desempenho.</desc><rect width="1600" height="900" fill="#e7e2da"/><rect x="70" y="70" width="1460" height="760" rx="36" fill="#17191b"/><rect x="180" y="185" width="830" height="520" rx="28" fill="#f1ede6"/><rect x="180" y="185" width="830" height="70" rx="28" fill="#d8d2c9"/><circle cx="230" cy="220" r="10" fill="#b86e4a"/><circle cx="263" cy="220" r="10" fill="#9e978e"/><circle cx="296" cy="220" r="10" fill="#9e978e"/><rect x="245" y="315" width="420" height="42" rx="21" fill="#0f3d4a"/><rect x="245" y="385" width="600" height="18" rx="9" fill="#aaa39a"/><rect x="245" y="425" width="500" height="18" rx="9" fill="#c7c0b7"/><rect x="245" y="490" width="210" height="130" rx="20" fill="#0f3d4a"/><rect x="480" y="490" width="210" height="130" rx="20" fill="#b86e4a"/><rect x="715" y="490" width="210" height="130" rx="20" fill="#2c3235"/><g transform="translate(1080 200)"><circle cx="150" cy="150" r="125" fill="#0f3d4a"/><path d="M150 62l68 28v60c0 54-29 96-68 116-39-20-68-62-68-116V90z" fill="#e7e2da"/><path d="M117 149l23 23 48-58" fill="none" stroke="#b86e4a" stroke-width="14" stroke-linecap="round" stroke-linejoin="round"/></g><g transform="translate(1070 520)"><rect width="330" height="150" rx="24" fill="#252a2d"/><circle cx="62" cy="58" r="25" fill="#b86e4a"/><path d="M115 48h165M115 78h115" stroke="#d7d2ca" stroke-width="14" stroke-linecap="round"/><path d="M45 113h240" stroke="#697176" stroke-width="10" stroke-linecap="round"/></g><text x="165" y="145" fill="#d28b68" font-family="Arial,sans-serif" font-size="22" font-weight="700" letter-spacing="4">RAVYT DIGITAL · ESTRATÉGIA &amp; CONVERSÃO</text></svg>