<svg xmlns="http://www.w3.org/2000/svg" width="1600" height="900" viewBox="0 0 1600 900" role="img" aria-labelledby="t d"><title id="t">Arquitetura de conteúdo para SEO moderno</title><desc id="d">Diagrama Hub-and-Spoke conectando um conteúdo pilar a artigos especializados e sinais técnicos.</desc><rect width="1600" height="900" fill="#121416"/><text x="110" y="130" fill="#f1ede6" font-family="Arial,sans-serif" font-size="48" font-weight="700">ARQUITETURA QUE CONSTRÓI AUTORIDADE</text><text x="110" y="185" fill="#a9a39b" font-family="Arial,sans-serif" font-size="23">Um tema central, conteúdos especializados e conexões internas que deixam a relação entre os assuntos explícita.</text><g stroke="#b86e4a" stroke-width="4" fill="none" opacity=".8"><path d="M800 455L395 300"/><path d="M800 455L1205 300"/><path d="M800 455L360 650"/><path d="M800 455L1240 650"/></g><g font-family="Arial,sans-serif"><circle cx="800" cy="455" r="155" fill="#0f3d4a"/><text x="800" y="430" text-anchor="middle" fill="#fff" font-size="24" font-weight="700">PÁGINA PILAR</text><text x="800" y="470" text-anchor="middle" fill="#e7e2da" font-size="21">tema amplo</text><text x="800" y="505" text-anchor="middle" fill="#d28b68" font-size="18">links internos contextuais</text><rect x="190" y="220" width="410" height="160" rx="22" fill="#24272a"/><text x="235" y="280" fill="#d28b68" font-size="18" font-weight="700">SPOKE 01</text><text x="235" y="325" fill="#f1ede6" font-size="28" font-weight="700">Pergunta específica</text><rect x="1000" y="220" width="410" height="160" rx="22" fill="#24272a"/><text x="1045" y="280" fill="#d28b68" font-size="18" font-weight="700">SPOKE 02</text><text x="1045" y="325" fill="#f1ede6" font-size="28" font-weight="700">Caso ou comparação</text><rect x="150" y="610" width="430" height="160" rx="22" fill="#24272a"/><text x="195" y="670" fill="#d28b68" font-size="18" font-weight="700">SPOKE 03</text><text x="195" y="715" fill="#f1ede6" font-size="28" font-weight="700">Guia aprofundado</text><rect x="1020" y="610" width="430" height="160" rx="22" fill="#24272a"/><text x="1065" y="670" fill="#d28b68" font-size="18" font-weight="700">BASE TÉCNICA</text><text x="1065" y="715" fill="#f1ede6" font-size="28" font-weight="700">Indexação + performance</text></g><text x="110" y="835" fill="#77716b" font-family="Arial,sans-serif" font-size="18">RAVYT DIGITAL · HUB-AND-SPOKE · SEO TÉCNICO · LINKS INTERNOS</text></svg>